<svg width="0" height="0" class="hidden">
  <symbol xmlns="http://www.w3.org/2000/svg" viewBox="0 0 24 24" id="vk">
    <path d="M13.162 18.994c.609 0 .858-.406.851-.915-.031-1.917.714-2.949 2.059-1.604 1.488 1.488 1.796 2.519 3.603 2.519h3.2c.808 0 1.126-.26 1.126-.668 0-.863-1.421-2.386-2.625-3.504-1.686-1.565-1.765-1.602-.313-3.486C22.864 8.997 25.22 6 23.136 6h-3.981c-.772 0-.828.435-1.103 1.083-.995 2.347-2.886 5.387-3.604 4.922-.751-.485-.407-2.406-.35-5.261.015-.754.011-1.271-1.141-1.539A8.07 8.07 0 0011.148 5c-2.273 0-3.841.953-2.95 1.119 1.571.293 1.42 3.692 1.054 5.16-.638 2.556-3.036-2.024-4.035-4.305C4.976 6.426 4.902 6 4.042 6H.787C.295 6 0 6.16 0 6.516c0 .602 2.96 6.72 5.786 9.77 2.756 2.975 5.48 2.708 7.376 2.708z"></path>
  </symbol>
  <symbol xmlns="http://www.w3.org/2000/svg" viewBox="0 0 512 512" id="envelope">
    <path d="M10.688 95.156C80.958 154.667 204.26 259.365 240.5 292.01c4.865 4.406 10.083 6.646 15.5 6.646 5.406 0 10.615-2.219 15.469-6.604 36.271-32.677 159.573-137.385 229.844-196.896 4.375-3.698 5.042-10.198 1.5-14.719C494.625 69.99 482.417 64 469.333 64H42.667c-13.083 0-25.292 5.99-33.479 16.438-3.542 4.52-2.875 11.02 1.5 14.718z"></path>
    <path d="M505.813 127.406a10.618 10.618 0 00-11.375 1.542C416.51 195.01 317.052 279.688 285.76 307.885c-17.563 15.854-41.938 15.854-59.542-.021-33.354-30.052-145.042-125-208.656-178.917a10.674 10.674 0 00-11.375-1.542A10.674 10.674 0 000 137.083v268.25C0 428.865 19.135 448 42.667 448h426.667C492.865 448 512 428.865 512 405.333v-268.25a10.66 10.66 0 00-6.187-9.677z"></path>
  </symbol>
   <symbol xmlns="http://www.w3.org/2000/svg" viewBox="0 0 512 512" id="phone">
    <path d="M436.992 74.953c-99.989-99.959-262.08-99.935-362.039.055s-99.935 262.08.055 362.039 262.08 99.935 362.039-.055a256 256 0 00-.055-362.039zm-49.289 281.652l-.034.034v-.085l-12.971 12.885a68.267 68.267 0 01-64.427 18.432 226.834 226.834 0 01-65.877-29.525 304.371 304.371 0 01-51.968-41.899 306.71 306.71 0 01-38.827-47.104 238.907 238.907 0 01-29.184-59.051 68.265 68.265 0 0117.067-69.717l15.189-15.189c4.223-4.242 11.085-4.257 15.326-.034l.034.034 47.957 47.957c4.242 4.223 4.257 11.085.034 15.326l-.034.034-28.16 28.16c-8.08 7.992-9.096 20.692-2.389 29.867a329.334 329.334 0 0033.707 39.339 327.314 327.314 0 0044.373 37.291c9.167 6.394 21.595 5.316 29.525-2.56l27.221-27.648c4.223-4.242 11.085-4.257 15.326-.034l.034.034 48.043 48.128c4.243 4.222 4.258 11.083.035 15.325z"></path>
  </symbol>
  <symbol xmlns="http://www.w3.org/2000/svg" viewBox="0 0 438.549 438.549" id="github">
    <path d="M409.132 114.573c-19.608-33.596-46.205-60.194-79.798-79.8-33.598-19.607-70.277-29.408-110.063-29.408-39.781 0-76.472 9.804-110.063 29.408-33.596 19.605-60.192 46.204-79.8 79.8C9.803 148.168 0 184.854 0 224.63c0 47.78 13.94 90.745 41.827 128.906 27.884 38.164 63.906 64.572 108.063 79.227 5.14.954 8.945.283 11.419-1.996 2.475-2.282 3.711-5.14 3.711-8.562 0-.571-.049-5.708-.144-15.417a2549.81 2549.81 0 01-.144-25.406l-6.567 1.136c-4.187.767-9.469 1.092-15.846 1-6.374-.089-12.991-.757-19.842-1.999-6.854-1.231-13.229-4.086-19.13-8.559-5.898-4.473-10.085-10.328-12.56-17.556l-2.855-6.57c-1.903-4.374-4.899-9.233-8.992-14.559-4.093-5.331-8.232-8.945-12.419-10.848l-1.999-1.431c-1.332-.951-2.568-2.098-3.711-3.429-1.142-1.331-1.997-2.663-2.568-3.997-.572-1.335-.098-2.43 1.427-3.289 1.525-.859 4.281-1.276 8.28-1.276l5.708.853c3.807.763 8.516 3.042 14.133 6.851 5.614 3.806 10.229 8.754 13.846 14.842 4.38 7.806 9.657 13.754 15.846 17.847 6.184 4.093 12.419 6.136 18.699 6.136 6.28 0 11.704-.476 16.274-1.423 4.565-.952 8.848-2.383 12.847-4.285 1.713-12.758 6.377-22.559 13.988-29.41-10.848-1.14-20.601-2.857-29.264-5.14-8.658-2.286-17.605-5.996-26.835-11.14-9.235-5.137-16.896-11.516-22.985-19.126-6.09-7.614-11.088-17.61-14.987-29.979-3.901-12.374-5.852-26.648-5.852-42.826 0-23.035 7.52-42.637 22.557-58.817-7.044-17.318-6.379-36.732 1.997-58.24 5.52-1.715 13.706-.428 24.554 3.853 10.85 4.283 18.794 7.952 23.84 10.994 5.046 3.041 9.089 5.618 12.135 7.708 17.705-4.947 35.976-7.421 54.818-7.421s37.117 2.474 54.823 7.421l10.849-6.849c7.419-4.57 16.18-8.758 26.262-12.565 10.088-3.805 17.802-4.853 23.134-3.138 8.562 21.509 9.325 40.922 2.279 58.24 15.036 16.18 22.559 35.787 22.559 58.817 0 16.178-1.958 30.497-5.853 42.966-3.9 12.471-8.941 22.457-15.125 29.979-6.191 7.521-13.901 13.85-23.131 18.986-9.232 5.14-18.182 8.85-26.84 11.136-8.662 2.286-18.415 4.004-29.263 5.146 9.894 8.562 14.842 22.077 14.842 40.539v60.237c0 3.422 1.19 6.279 3.572 8.562 2.379 2.279 6.136 2.95 11.276 1.995 44.163-14.653 80.185-41.062 108.068-79.226 27.88-38.161 41.825-81.126 41.825-128.906-.01-39.771-9.818-76.454-29.414-110.049z"></path>
  </symbol>
  <symbol xmlns="http://www.w3.org/2000/svg" viewBox="0 0 24 24" id="skype">
    <path d="M23.309 14.547C25.047 6.737 18.205-.358 10.17 1.004 5.808-1.703 0 1.356 0 6.546c0 1.207.333 2.337.912 3.311-1.615 7.828 5.283 14.821 13.311 13.366 5.675 3.001 11.946-2.984 9.086-8.676zm-7.638 4.71c-2.108.867-5.577.872-7.676-.227-2.993-1.596-3.525-5.189-.943-5.189 1.946 0 1.33 2.269 3.295 3.194.902.417 2.841.46 3.968-.3 1.113-.745 1.011-1.917.406-2.477-1.603-1.48-6.19-.892-8.287-3.483-.911-1.124-1.083-3.107.037-4.545 1.952-2.512 7.68-2.665 10.143-.768 2.274 1.76 1.66 4.096-.175 4.096-2.207 0-1.047-2.888-4.61-2.888-2.583 0-3.599 1.837-1.78 2.731 2.466 1.225 8.75.816 8.75 5.603-.005 1.992-1.226 3.477-3.128 4.253z"></path>
  </symbol>
  <symbol xmlns="http://www.w3.org/2000/svg" viewBox="0 0 24 24" id="telegram">
    <path d="M12 24c6.629 0 12-5.371 12-12S18.629 0 12 0 0 5.371 0 12s5.371 12 12 12zM5.491 11.74l11.57-4.461c.537-.194 1.006.131.832.943l.001-.001-1.97 9.281c-.146.658-.537.818-1.084.508l-3-2.211-1.447 1.394c-.16.16-.295.295-.605.295l.213-3.053 5.56-5.023c.242-.213-.054-.333-.373-.121l-6.871 4.326-2.962-.924c-.643-.204-.657-.643.136-.953z"></path>
  </symbol>
  <symbol xmlns="http://www.w3.org/2000/svg" viewBox="0 0 512 512" id="whatsapp">
    <path d="M256.064 0h-.128C114.784 0 0 114.816 0 256c0 56 18.048 107.904 48.736 150.048l-31.904 95.104 98.4-31.456C155.712 496.512 204 512 256.064 512 397.216 512 512 397.152 512 256S397.216 0 256.064 0zm148.96 361.504c-6.176 17.44-30.688 31.904-50.24 36.128-13.376 2.848-30.848 5.12-89.664-19.264-75.232-31.168-123.68-107.616-127.456-112.576-3.616-4.96-30.4-40.48-30.4-77.216s18.656-54.624 26.176-62.304c6.176-6.304 16.384-9.184 26.176-9.184 3.168 0 6.016.16 8.576.288 7.52.32 11.296.768 16.256 12.64 6.176 14.88 21.216 51.616 23.008 55.392 1.824 3.776 3.648 8.896 1.088 13.856-2.4 5.12-4.512 7.392-8.288 11.744-3.776 4.352-7.36 7.68-11.136 12.352-3.456 4.064-7.36 8.416-3.008 15.936 4.352 7.36 19.392 31.904 41.536 51.616 28.576 25.44 51.744 33.568 60.032 37.024 6.176 2.56 13.536 1.952 18.048-2.848 5.728-6.176 12.8-16.416 20-26.496 5.12-7.232 11.584-8.128 18.368-5.568 6.912 2.4 43.488 20.48 51.008 24.224 7.52 3.776 12.48 5.568 14.304 8.736 1.792 3.168 1.792 18.048-4.384 35.52z"></path>
  </symbol>
   <symbol xmlns="http://www.w3.org/2000/svg" viewBox="0 0 512 512" id="verified">
    <path d="M437.019 74.98C388.667 26.629 324.38 0 256 0 187.619 0 123.331 26.629 74.98 74.98 26.628 123.332 0 187.62 0 256s26.628 132.667 74.98 181.019C123.332 485.371 187.619 512 256 512c68.38 0 132.667-26.629 181.019-74.981C485.371 388.667 512 324.38 512 256s-26.629-132.667-74.981-181.02zM256 482C131.383 482 30 380.617 30 256S131.383 30 256 30s226 101.383 226 226-101.383 226-226 226z"></path>
    <path d="M378.305 173.859c-5.857-5.856-15.355-5.856-21.212.001L224.634 306.319l-69.727-69.727c-5.857-5.857-15.355-5.857-21.213 0-5.858 5.857-5.858 15.355 0 21.213l80.333 80.333a14.953 14.953 0 0010.606 4.393c3.838 0 7.678-1.465 10.606-4.393l143.066-143.066c5.858-5.857 5.858-15.355 0-21.213z"></path>
  </symbol>
   <symbol xmlns="http://www.w3.org/2000/svg" viewBox="0 0 512 512" id="instagram">
    <path d="M305 256c0 27.063-21.938 49-49 49s-49-21.938-49-49 21.938-49 49-49 49 21.938 49 49zm0 0"></path>
    <path d="M370.594 169.305a45.546 45.546 0 00-10.996-16.903 45.514 45.514 0 00-16.903-10.996c-5.18-2.011-12.96-4.406-27.293-5.058-15.504-.707-20.152-.86-59.402-.86-39.254 0-43.902.149-59.402.856-14.332.656-22.118 3.05-27.293 5.062a45.483 45.483 0 00-16.903 10.996 45.572 45.572 0 00-11 16.903c-2.011 5.18-4.406 12.965-5.058 27.297-.707 15.5-.86 20.148-.86 59.402 0 39.25.153 43.898.86 59.402.652 14.332 3.047 22.114 5.058 27.293a45.563 45.563 0 0010.996 16.903 45.514 45.514 0 0016.903 10.996c5.18 2.015 12.965 4.41 27.297 5.062 15.5.707 20.144.856 59.398.856 39.258 0 43.906-.149 59.402-.856 14.332-.652 22.118-3.047 27.297-5.062a48.68 48.68 0 0027.899-27.899c2.011-5.18 4.406-12.96 5.062-27.293.707-15.504.856-20.152.856-59.402 0-39.254-.149-43.902-.856-59.402-.652-14.332-3.047-22.118-5.062-27.297zM256 331.485c-41.691 0-75.488-33.794-75.488-75.485s33.797-75.484 75.488-75.484c41.688 0 75.484 33.793 75.484 75.484S297.688 331.484 256 331.484zm78.469-136.313c-9.742 0-17.64-7.899-17.64-17.64s7.898-17.641 17.64-17.641 17.64 7.898 17.64 17.64c-.004 9.742-7.898 17.64-17.64 17.64zm0 0"></path>
    <path d="M256 0C114.637 0 0 114.637 0 256s114.637 256 256 256 256-114.637 256-256S397.363 0 256 0zm146.113 316.605c-.71 15.649-3.199 26.333-6.832 35.684a75.164 75.164 0 01-42.992 42.992c-9.348 3.633-20.035 6.117-35.68 6.832-15.675.715-20.683.887-60.605.887-39.926 0-44.93-.172-60.61-.887-15.644-.715-26.331-3.199-35.68-6.832a72.018 72.018 0 01-26.038-16.957 72.044 72.044 0 01-16.953-26.035c-3.633-9.348-6.121-20.035-6.832-35.68-.723-15.68-.891-20.687-.891-60.609s.168-44.93.887-60.605c.71-15.649 3.195-26.332 6.828-35.684a72.013 72.013 0 0116.96-26.035 72.003 72.003 0 0126.036-16.957c9.352-3.633 20.035-6.117 35.684-6.832C211.07 109.172 216.078 109 256 109s44.93.172 60.605.89c15.649.712 26.332 3.196 35.684 6.825a72.061 72.061 0 0126.04 16.96 72.027 72.027 0 0116.952 26.036c3.637 9.352 6.121 20.035 6.836 35.684.715 15.675.883 20.683.883 60.605s-.168 44.93-.887 60.605zm0 0"></path>
  </symbol>
  <symbol xmlns="http://www.w3.org/2000/svg" viewBox="0 0 475.695 475.696" id="cow">
    <path d="M473.006 155.496l-51.252-53.468 22.307-14.227 1.302-11.088-10.347-.617-26.834 19.301-33.485.029-20.498-12.516-7.342 1.499.108 8.137 13.213 14.634-1.742 7.687-155.498 16.723-161.069-4.498-17.357 7.276-12.785 16.246-6.578 38-1.162 27.316L0 241.437l1.096 25.405 4.484.917 6.518-7.176 5.299-23.837-4.295-33.068 1.494-.225 10.096 50.342-6.877 43.69 6.279 87.196.598 9.656 6.119 5.22 27.055.042 8.718-2.637-24.205-39.417 12.008-50.056 6.289.011 21.943 66.553 11.311 17.086 5.58 3.435 29.865.022 3.832-4.795-25.853-15.881-17.529-53.984 4.394-8.764 10.297.956 6.465 15.83 9.365-15.43 9.074 15.496 7.686-16.826 22.623-17.39 80.279-7.688 13.474 16.473 11.356 80.53 5.974 11.571 27.354-.011 2.949-4.336-16.626-23.141-1.998-44.065 8.978 4.983 9.457 29.271 12.027 38.008 5.393 4.181 24.474.015 2.032-5.527-7.155-6.622-23.078-45.101 5.32-47.266 25.86-19.129 37.67-69.969 43.357-20.016 39.871-4.539 3.418-3.706 5.58-15.726z"></path>
  </symbol>
 <symbol xmlns="http://www.w3.org/2000/svg" viewBox="0 0 512 512" id="pig">
    <path d="M464.109 334.685l6.314-37.885L448 322.959V366.7l7.589 22.768a8 8 0 01-.434 6.108L444.944 416h14.112l20.182-40.364-14.666-36.665a7.994 7.994 0 01-.463-4.286z"></path>
    <path d="M486 147a32.036 32.036 0 00-32-32h-24a8 8 0 000 16h24a16 16 0 010 32h-8a8.006 8.006 0 00-1.763.2A53.59 53.59 0 00426 160H184a8 8 0 01-6.247-3l-6.7-8.38a75.84 75.84 0 00-55.184-28.5l20.522 51.306A19.9 19.9 0 00154.957 184H176a8 8 0 010 16h-21.043a35.828 35.828 0 01-33.425-22.63l-3.121-7.8a69.863 69.863 0 00-22.911 21.6l-1.812 2.72a136.287 136.287 0 01-16.994 20.728l-.35.35A135.723 135.723 0 0141 240.445l-9 4.5v38.775l10.53 7.02a197.026 197.026 0 0071 29.408 8.141 8.141 0 014.128 2.2l24 24a8 8 0 012.234 4.342l8 48a8 8 0 01-.3 3.845L147.1 416h23.134l6.177-18.53a7.841 7.841 0 01.434-1.048L184 382.111V360a8 8 0 011.344-4.438l16-24a8 8 0 0110.234-2.717l1.516.758a196.87 196.87 0 00147.446 11.33A88.655 88.655 0 01336 280a8 8 0 0116 0 72.463 72.463 0 0028 56.994 2.176 2.176 0 01.288.264 8 8 0 013.47 4.8l8 32a7.991 7.991 0 01.13 3.255L385.444 416h17.913L432 365.875V320a8 8 0 011.926-5.207l24.888-29.036A88.057 88.057 0 00480 228.487V214a53.78 53.78 0 00-14.759-37.043A32.05 32.05 0 00486 147zm-386 93a12 12 0 1112-12 12 12 0 01-12 12z"></path>
  </symbol>
   <symbol xmlns="http://www.w3.org/2000/svg" viewBox="0 0 362.582 362.582" id="chicken">
    <path d="M335.841 39.604c-6.93-4.742-6.93-4.742-10.57-11.657-1.914-3.638-2.614-7.376-3.077-9.851-.435-2.319-.652-3.483-1.848-3.483-.311 0-.565.116-.771.27-.175-.516-.362-1.21-.505-1.736-.655-2.429-1.274-4.722-2.956-4.722l-.185.011c-1.756.202-2.029 2.029-2.193 3.12l-.03.2c-.344-.718-.575-2.146-.727-3.079-.354-2.188-.722-4.45-2.535-4.45-1.713 0-2.148 1.768-2.408 2.824-.051.205-.117.475-.184.684-.697-.596-1.036-2.219-1.314-3.549-.41-1.962-.876-4.186-2.806-4.186-.562 0-1.06.201-1.438.583-.895.896-.889 2.56-.883 4.026.001.257.002.576-.007.864-.319-.247-.687-.556-.975-.797-1.651-1.385-2.816-2.292-3.918-2.292-.369 0-1.59.138-1.787 1.907-.211 1.9.878 3.874 1.838 5.615.457.829 1.223 2.217 1.09 2.59-.41.205-1.276.403-2.28.632-3.672.837-10.507 2.396-15.354 9.063-2.228 3.063-5.274 5.773-8.499 8.645-5.429 4.831-11.042 9.827-14.15 17.478-2.163 5.324-4.619 14.608-7.219 24.437-3.223 12.183-6.555 24.78-9.229 29.113-8.392 13.598-28.729 20.493-60.447 20.494-9.78 0-18.455-.681-23.638-1.088-1.78-.14-3.204-.251-4.181-.298-4.961-1.708-8.641-4.51-10.938-8.328-4.726-7.855-12.54-26.714-20.097-44.951C107.328 33.2 102.402 22.46 99.425 22.46l-.143.007c-2.35.223-2.929 2.099-3.025 3.752-.464-.729-.921-1.473-1.187-1.904-4.26-6.92-9.162-10.73-13.805-10.73-2.144 0-4.158.849-5.824 2.455-3.996 3.854-4.801 6.667-5.448 8.928-.521 1.824-.898 3.142-2.759 4.668-.555.455-1.999.816-3.527 1.2-4.37 1.095-10.975 2.749-11.388 9.979-.51 8.928-3.042 12.189-5.077 14.81-2.128 2.74-3.965 5.106-2.571 11.865 1.001 4.85 1.028 6.144-4.266 13.828-4.999 7.257-21.137 40.815-11.441 55.43 3.238 4.883 2.152 9.554.508 16.627-2.708 11.645-6.8 29.238 6.586 62.282 7.818 19.303 23.578 31.248 32.994 38.389 1.798 1.364 3.352 2.529 4.614 3.573 7.537 6.231 26.299 15.425 42.634 15.425 3.724 0 7.19-.532 10.307-1.474 3.415-1.029 7.476 2.634 12.839 7.647 7.419 6.935 17.643 16.361 33.89 20.838 2.025 7.043 3.394 12.093 3.414 12.904-.159 1.735-4.818 4.321-9.752 7.059-3.521 1.953-5.37 4.101-4.945 5.743.316 1.219 1.714 1.712 3.504 1.152.473-.147.937-.313 1.409-.48 1.629-.58 3.313-1.18 5.876-1.18 1.643 0 3.469.241 5.581.738 3.968.933 4.974 2.25 6.038 3.644 1.039 1.36 2.216 2.901 5.783 3.883 1.362.375 2.829.714 4.381 1.072 6.057 1.399 12.921 2.985 15.015 7.22.254.513.412.941.54 1.286.277.75.623 1.685 1.811 1.685.324 0 .693-.075 1.234-.25 1.424-.461 2.832-1.908 3.426-3.52.529-1.438.396-2.921-.375-4.175-1.247-2.026-3.291-3.75-5.475-5.151 1.782.262 3.697.45 5.671.498 8.232.2 14.141 1.659 17.996 2.901-1.117 1.779-4.82 4.308-8.714 6.963-3.31 2.257-4.922 4.478-4.424 6.092.378 1.229 1.844 1.647 3.622.907.456-.19.903-.396 1.358-.607 1.898-.88 3.862-1.79 7.46-1.79 1.179 0 2.494.1 3.908.298 4.037.565 5.159 1.784 6.348 3.075 1.158 1.259 2.473 2.686 6.115 3.336 1.39.248 2.881.451 4.459.665 6.159.838 13.141 1.786 15.615 5.812.299.487.496.9.654 1.231.341.712.728 1.52 1.779 1.519.37 0 .771-.107 1.384-.37 1.376-.589 2.646-2.16 3.09-3.819.396-1.48.127-2.944-.756-4.121-1.429-1.905-3.624-3.435-5.929-4.63 1.836.101 3.852.102 5.696-.022a72.699 72.699 0 014.9-.169c8.324 0 13.961 1.522 16.67 2.253 1.084.293 1.682.454 2.121.454.631 0 .936-.34 1.061-.543.126-.203.294-.628.013-1.19-1.295-2.59-3.693-5.383-12.394-8.252-2.976-.982-8.327-1.442-13.049-1.85-2.467-.212-5.365-.462-7.064-.757.952-.335 2.021-.527 2.813-.67 1.231-.222 2.122-.382 2.141-1.347.021-1.096-.868-1.293-5.146-2.237a22.39 22.39 0 00-4.886-.551c-1.957 0-3.549.272-4.827.491-1.332.229-2.378.384-3.016.153-1.769-1.812-11.424-22.73-19.702-41.26a196.96 196.96 0 0012.221-4.928c1.807-.483 3.477-.735 5.103-1.215 29.062-8.566 74.569-42.8 80.826-101.998 6.78-64.153-6.703-88.669-11.134-96.725-6.076-11.049-10.811-25.081-5.876-31.332 4.339-5.497 4.034-12.29 3.871-15.94-.033-.736-.07-1.551-.044-1.988.089-.007.204-.012.351-.012 1.642 0 4.934.588 7.838 1.106 2.683.479 5 .894 6.146.894.314 0 1.272 0 1.536-.851.176-.565-.082-1.087-.765-1.555zM193.143 302.621c8.624 0 17.985-1.288 27.991-3.889 4.348 10.776 8.703 21.722 11.297 28.558a54.165 54.165 0 00-2.958-1.39c-2.873-1.25-8.158-2.199-12.821-3.037-2.438-.438-5.304-.953-6.968-1.403.979-.246 2.061-.34 2.861-.409 1.247-.107 2.148-.186 2.256-1.144.122-1.09-.747-1.367-4.919-2.7-2.291-.732-4.523-1.089-6.826-1.089-1.075 0-2.013.073-2.84.138-.639.05-1.189.093-1.676.093-.599 0-1.019-.067-1.342-.217-.749-.923-2.844-6.203-5.532-13.533.488.008.971.022 1.467.022h.01zm18.847 41.15v.009-.009z"></path>
  </symbol>
    <symbol xmlns="http://www.w3.org/2000/svg" viewBox="0 0 512 512" id="infinity">
    <path d="M476.581 163.419C453.41 140.248 421.396 128 384 128c-76.369 0-113.4 62.86-146.073 118.32C207.05 298.734 180.383 344 128 344c-54.28 0-88-33.72-88-88s33.72-88 88-88c23.21 0 44.197 9.302 64.16 28.438 7.974 7.643 20.634 7.377 28.278-.598 7.644-7.974 7.376-20.634-.598-28.278C192.454 141.311 161.555 128 128 128c-37.395 0-69.409 12.248-92.581 35.419C12.248 186.591 0 218.605 0 256s12.248 69.409 35.419 92.581C58.591 371.752 90.605 384 128 384c61.502 0 97.276-41.663 125.991-86.924 4.659 7.904 10.313 16.535 17.017 25.18C302.331 362.649 341.403 384 384 384c14.703 0 28.756-1.935 41.767-5.75 10.6-3.107 16.673-14.22 13.565-24.819-3.108-10.6-14.22-16.672-24.819-13.565C405.158 342.609 394.892 344 384 344c-60.616 0-95.467-64.338-105.885-87.07C306.987 208.243 333.79 168 384 168c54.28 0 88 33.72 88 88 0 12.21-1.707 23.552-5.071 33.711-3.473 10.485 2.211 21.801 12.696 25.274 10.488 3.475 21.801-2.212 25.274-12.696C509.611 288.065 512 272.492 512 256c0-37.396-12.248-69.409-35.419-92.581z"></path>
  </symbol>
</svg>
